<?xml version="1.0" standalone="no"?>
<!DOCTYPE svg PUBLIC "-//W3C//DTD SVG 20010904//EN"
 "http://www.w3.org/TR/2001/REC-SVG-20010904/DTD/svg10.dtd">
<svg version="1.0" xmlns="http://www.w3.org/2000/svg"
 width="1000.000000pt" height="1000.000000pt" viewBox="0 0 1000.000000 1000.000000"
 preserveAspectRatio="xMidYMid meet">
<metadata>
Created by potrace 1.14, written by Peter Selinger 2001-2017
</metadata>
<g transform="translate(0.000000,1000.000000) scale(0.100000,-0.100000)"
fill="#000000" stroke="none">
<path d="M1946 9381 c-42 -40 -76 -77 -76 -80 0 -3 -7 -44 -16 -91 -8 -47 -17
-94 -18 -105 -2 -11 -9 -49 -15 -85 -6 -36 -11 -68 -11 -72 0 -5 166 -8 369
-8 l370 0 -5 -22 c-6 -34 -12 -67 -19 -120 -5 -30 -17 -58 -33 -75 l-26 -28
-368 -5 -368 -5 45 -66 46 -65 409 0 409 1 73 72 c45 43 74 80 76 95 1 12 15
96 30 186 l28 162 -373 0 c-352 0 -374 1 -369 18 2 9 10 50 16 90 10 60 17 78
46 107 26 27 42 35 71 36 21 0 156 0 301 0 259 1 263 1 290 24 41 34 112 102
112 107 0 2 -207 4 -459 4 l-460 0 -75 -75z"/>
<path d="M3021 9401 c-6 -31 -13 -72 -16 -91 -6 -37 -42 -237 -50 -280 -3 -13
-7 -40 -10 -60 -3 -20 -8 -47 -10 -60 -3 -14 -8 -38 -10 -55 -36 -203 -46
-263 -50 -282 -5 -23 -5 -23 135 -23 105 0 140 3 141 13 0 6 2 19 4 27 13 63
47 254 52 290 3 25 7 47 10 50 2 2 110 5 239 5 203 0 234 -1 234 -15 0 -8 -14
-91 -30 -185 -16 -93 -30 -173 -30 -177 0 -5 60 -8 134 -8 l135 0 10 53 c6 28
13 67 16 85 9 59 16 96 36 207 11 61 22 125 25 144 3 18 7 43 10 55 15 80 57
325 58 341 1 20 -5 20 -511 21 l-511 0 -11 -55z m730 -80 c3 -1 0 -36 -8 -78
-8 -43 -16 -89 -18 -103 -13 -72 13 -65 -243 -68 -216 -2 -232 -1 -232 15 0
10 9 65 20 123 11 58 20 106 20 107 0 6 403 10 461 4z"/>
<path d="M4199 9452 c-12 -2 -19 -19 -24 -55 -4 -29 -8 -59 -10 -67 -2 -8 -6
-33 -10 -55 -3 -22 -17 -98 -30 -170 -13 -71 -35 -197 -49 -280 -14 -82 -28
-161 -31 -175 -2 -13 -7 -41 -10 -62 l-6 -38 135 0 135 0 10 58 c23 118 89
489 97 542 3 19 7 46 10 60 3 14 7 41 10 60 3 19 11 66 19 104 8 38 12 72 9
75 -6 6 -228 9 -255 3z"/>
<path d="M4973 9448 c-4 -8 -9 -30 -18 -83 -3 -16 -21 -118 -40 -225 -19 -107
-37 -211 -40 -230 -3 -19 -10 -57 -15 -85 -11 -60 -18 -98 -26 -145 -3 -19
-10 -55 -14 -80 -5 -25 -7 -47 -4 -49 2 -2 233 -4 514 -5 446 -1 511 1 515 14
2 8 9 42 14 75 6 33 13 74 16 90 3 17 8 46 10 65 3 19 8 46 11 60 3 14 8 36
10 50 3 14 9 49 14 79 6 30 8 56 6 58 -5 6 -258 5 -263 -1 -5 -5 -38 -174 -49
-253 -3 -23 -9 -55 -13 -70 l-7 -28 -243 -3 -243 -2 6 26 c4 15 20 102 36 193
16 91 39 223 51 294 l23 127 210 0 c116 -1 270 -1 341 0 l130 1 68 64 c38 36
65 65 60 66 -43 5 -1056 2 -1060 -3z"/>
<path d="M6168 9452 c-36 -3 -37 -5 -47 -55 -11 -55 -37 -199 -46 -257 -3 -19
-12 -71 -20 -115 -8 -44 -17 -98 -21 -120 -3 -22 -9 -57 -14 -77 -4 -20 -5
-38 -1 -40 4 -2 44 -56 90 -120 l83 -118 403 0 404 0 11 58 c17 89 20 105 25
137 2 17 6 40 9 51 2 12 7 38 10 59 7 40 43 242 51 285 6 33 13 76 20 124 3
21 7 41 9 45 2 3 7 26 10 51 3 25 8 55 10 68 3 13 0 22 -7 23 -55 2 -950 3
-979 1z m687 -178 c-3 -25 -8 -56 -11 -67 -2 -12 -7 -38 -10 -57 -2 -19 -9
-57 -15 -85 -5 -27 -11 -63 -14 -80 -2 -16 -7 -43 -10 -60 -3 -16 -12 -68 -20
-115 -9 -47 -17 -94 -20 -106 -4 -20 -10 -21 -167 -19 -90 1 -166 2 -169 3 -3
1 -23 28 -44 60 -21 31 -48 67 -58 79 -19 22 -19 45 -1 136 2 12 16 90 29 172
14 83 28 158 31 168 5 16 25 17 246 17 l240 0 -7 -46z"/>
<path d="M8005 9440 c-2 -8 -7 -31 -10 -50 -7 -44 -17 -99 -21 -125 -3 -11
-13 -72 -24 -135 -11 -63 -23 -126 -25 -138 l-6 -24 -32 25 c-170 129 -620
457 -623 454 -5 -4 -8 -20 -18 -78 -3 -19 -8 -45 -10 -59 -3 -14 -15 -79 -26
-145 -27 -151 -27 -152 -45 -260 -9 -49 -18 -101 -21 -115 -2 -14 -7 -40 -10
-59 -3 -18 -8 -43 -10 -55 -4 -20 -13 -70 -20 -108 -3 -16 9 -18 131 -18 119
0 134 2 139 18 3 9 12 58 21 107 8 50 17 99 19 110 2 11 7 40 12 65 4 25 8 47
9 50 1 3 5 30 9 60 13 84 14 85 86 30 36 -28 76 -58 90 -69 14 -10 86 -64 160
-119 74 -56 147 -110 161 -121 99 -78 174 -128 176 -118 5 24 105 593 109 622
3 17 9 53 14 80 6 28 12 68 16 90 3 22 9 54 13 70 l8 31 -133 -1 c-111 0 -135
-2 -139 -15z"/>
<path d="M5790 7791 c-30 -10 -127 -53 -215 -97 -88 -44 -196 -93 -240 -109
-86 -31 -145 -62 -145 -76 0 -16 39 -29 127 -44 126 -22 123 -21 123 -64 0
-51 -32 -75 -165 -125 -108 -41 -185 -77 -185 -87 0 -3 8 -13 18 -22 12 -11
56 -18 162 -26 160 -12 190 -18 190 -35 0 -24 -18 -34 -100 -54 -47 -12 -116
-30 -155 -41 -38 -11 -97 -27 -130 -36 -33 -9 -73 -22 -90 -29 -16 -8 -41 -17
-55 -21 l-25 -8 25 -10 c14 -5 156 -11 315 -14 336 -4 416 -12 505 -50 64 -27
70 -28 290 -30 182 -3 235 0 279 13 89 26 151 63 217 128 100 100 144 209 144
356 0 147 -44 256 -144 356 -65 65 -127 102 -213 127 -79 24 -457 22 -533 -2z"/>
<path d="M8365 7297 c-44 -31 -100 -56 -205 -91 -80 -27 -150 -53 -157 -58
-21 -17 -3 -36 49 -54 41 -13 48 -19 37 -29 -17 -16 -177 -67 -274 -88 -38 -9
-91 -27 -117 -40 l-48 -25 69 -26 c37 -15 77 -33 87 -41 18 -15 18 -16 -11
-40 -16 -14 -55 -30 -85 -36 -169 -34 -242 -52 -293 -73 l-56 -22 52 -26 c29
-14 66 -30 82 -34 42 -12 -425 -21 -1200 -23 -709 -1 -689 0 -822 -69 -32 -17
-85 -41 -118 -53 -72 -26 -76 -28 -140 -64 l-50 -29 33 38 c18 21 32 45 30 54
-5 26 -52 26 -116 1 -74 -28 -42 -10 -689 -376 -309 -175 -579 -327 -601 -338
-21 -12 -85 -48 -143 -80 -57 -32 -122 -68 -144 -80 -22 -11 -73 -40 -113 -64
-40 -24 -119 -66 -175 -92 -56 -27 -104 -54 -105 -59 -2 -6 -10 -10 -17 -10
-7 0 -15 -6 -18 -14 -5 -11 12 -19 71 -31 107 -23 109 -24 116 -40 11 -30 -9
-47 -128 -105 -202 -100 -215 -108 -209 -130 4 -13 17 -21 42 -25 93 -15 146
-26 153 -33 23 -23 -59 -117 -123 -141 -151 -57 -228 -94 -235 -115 -8 -24 6
-32 70 -40 28 -3 68 -11 88 -16 41 -12 41 -11 1 -97 -28 -59 -27 -87 3 -91 15
-2 37 18 87 80 94 120 97 122 146 108 45 -12 45 -10 4 -97 -28 -59 -27 -87 3
-91 15 -2 39 20 95 89 41 51 91 113 111 138 21 25 55 69 77 96 22 28 83 104
137 170 97 119 266 328 269 333 1 1 51 7 111 12 60 5 134 12 164 15 150 13
1439 125 1447 125 13 0 23 34 14 47 -3 5 -40 26 -81 46 -41 20 -88 48 -105 62
-26 23 -24 22 18 -4 96 -59 155 -68 419 -65 l236 2 264 111 c144 61 515 217
823 347 308 130 580 243 605 253 79 29 136 78 242 207 187 229 260 318 322
391 34 39 74 89 89 110 15 21 55 70 87 108 130 153 171 209 168 229 -5 33 -35
30 -89 -10 -50 -36 -196 -100 -206 -90 -3 3 9 22 26 42 36 40 39 78 6 81 -11
1 -47 -17 -80 -40z m-37 -216 c16 -9 1 -24 -35 -35 -27 -9 -29 1 -6 26 18 20
22 21 41 9z m-4928 -2096 c0 -26 -65 -102 -105 -122 -29 -15 -29 -15 -14 3 8
11 34 43 58 72 37 45 61 64 61 47z"/>
<path d="M4385 6694 c-44 -7 -208 -24 -365 -39 -157 -15 -296 -32 -309 -38
-40 -20 -66 -64 -66 -114 0 -39 5 -49 36 -78 l37 -33 208 3 c303 4 820 57 884
90 60 31 78 116 38 175 -32 47 -66 56 -168 41 -61 -9 -94 -9 -114 -2 -33 13
-76 12 -181 -5z"/>
<path d="M7505 5643 c-497 -24 -684 -36 -705 -46 -33 -16 -70 -73 -70 -109 0
-41 25 -85 59 -103 36 -18 362 -14 796 9 154 9 292 16 308 16 39 0 96 55 103
101 8 46 -16 99 -54 121 -22 12 -60 15 -207 14 -99 0 -202 -2 -230 -3z"/>
<path d="M5092 4830 c-32 -14 -38 -37 -15 -69 l21 -27 -72 36 -71 35 -225 3
c-242 2 -298 -4 -390 -45 -130 -58 -444 -213 -485 -239 -54 -33 -23 -64 65
-64 35 0 90 -19 90 -31 0 -6 -18 -34 -40 -63 -35 -47 -50 -57 -120 -85 -43
-17 -83 -31 -89 -31 -15 0 -168 -49 -243 -78 -50 -19 -65 -29 -57 -38 16 -19
58 -31 156 -44 114 -16 119 -19 100 -57 -25 -47 -91 -94 -247 -178 -165 -87
-187 -102 -192 -129 -3 -17 6 -21 70 -31 79 -12 102 -25 83 -47 -7 -7 -26 -32
-43 -56 -36 -51 -103 -87 -233 -126 -49 -15 -112 -36 -140 -46 -27 -11 -62
-22 -77 -26 -28 -6 -34 -19 -20 -40 4 -6 50 -18 102 -27 96 -16 124 -32 118
-67 -4 -22 -127 -83 -243 -121 -55 -18 -111 -39 -125 -46 -14 -7 -40 -16 -59
-19 -51 -10 -123 -54 -117 -71 3 -8 6 -17 6 -19 0 -2 9 -4 20 -4 12 0 50 -7
85 -16 61 -15 64 -18 53 -37 -27 -51 -106 -97 -233 -135 -246 -75 -275 -86
-289 -108 -14 -21 -13 -22 52 -38 43 -10 74 -24 85 -38 19 -22 19 -23 -40 -75
-68 -62 -170 -133 -190 -133 -8 0 -30 -8 -51 -19 -45 -22 -294 -85 -421 -105
-57 -10 -101 -22 -116 -35 l-25 -19 87 -15 c49 -9 122 -21 163 -28 76 -11 110
-23 110 -37 0 -5 -77 -77 -171 -161 -132 -119 -169 -158 -167 -175 6 -45 18
-40 358 147 25 14 13 -2 -44 -55 -57 -53 -77 -79 -74 -93 2 -14 12 -20 29 -20
13 0 189 91 389 202 201 111 628 347 950 525 l585 324 380 282 c209 155 508
377 665 492 157 116 293 221 302 233 15 18 19 19 27 8 8 -12 24 -12 118 1 98
14 109 14 120 0 12 -14 58 -9 480 52 258 37 479 70 493 73 14 2 -15 -20 -65
-51 -128 -78 -166 -106 -160 -117 4 -5 1 -9 -4 -9 -6 0 -11 -4 -11 -9 0 -4 30
-13 67 -19 36 -6 70 -15 75 -20 10 -10 -53 -52 -174 -115 -96 -51 -136 -83
-120 -99 5 -5 45 -14 88 -20 44 -6 80 -12 81 -12 1 -1 4 -12 8 -26 10 -43 -39
-84 -184 -155 -48 -23 -102 -56 -120 -72 l-33 -31 49 -10 c26 -6 63 -14 81
-17 65 -13 63 -34 -28 -214 -44 -90 -80 -170 -78 -179 2 -10 13 -18 24 -20 17
-2 59 39 190 187 92 105 172 191 176 191 16 0 7 -23 -73 -181 -44 -89 -79
-168 -77 -177 2 -10 13 -18 24 -20 17 -2 62 43 205 205 101 114 253 287 338
383 86 96 168 189 182 205 15 17 102 116 195 220 334 377 318 358 332 408 17
60 0 187 -32 241 -26 45 -106 108 -171 134 -16 6 -415 68 -885 137 -764 113
-860 125 -897 114 -32 -9 -61 -9 -118 0 -88 13 -92 13 -123 1z"/>
<path d="M2435 4503 c-236 -19 -383 -36 -405 -48 -59 -30 -78 -110 -41 -171
30 -49 65 -58 179 -47 61 6 105 6 119 0 14 -6 82 -4 200 7 98 9 221 19 273 22
128 8 163 18 195 56 24 28 27 39 22 82 -3 40 -11 55 -35 77 l-31 28 -218 -1
c-120 -1 -236 -3 -258 -5z"/>
<path d="M6675 3059 c-84 -25 -118 -106 -75 -177 32 -51 69 -62 186 -53 54 4
109 4 121 0 29 -11 212 5 241 20 31 16 62 69 62 104 0 15 -7 41 -15 57 -28 54
-50 59 -281 58 -115 0 -222 -4 -239 -9z"/>
<path d="M4960 2769 c-47 -5 -186 -18 -310 -30 -124 -11 -243 -24 -264 -29
-88 -19 -131 -111 -84 -180 38 -56 64 -63 174 -51 63 6 104 7 123 0 20 -7 84
-4 222 10 107 11 277 28 379 37 109 9 196 22 212 30 55 29 75 112 39 170 -30
49 -66 58 -182 48 -55 -5 -106 -6 -112 -2 -15 9 -84 8 -197 -3z"/>
<path d="M3335 1488 c-24 -18 -36 -51 -50 -130 l-6 -38 134 0 133 0 -4 -35
c-2 -19 -10 -39 -18 -45 -8 -7 -62 -12 -143 -12 l-130 0 16 -24 c15 -24 18
-24 164 -24 141 0 149 1 173 23 25 23 31 42 42 125 l6 42 -131 0 -131 0 0 29
c0 53 19 61 142 61 101 0 112 2 129 22 11 11 19 23 19 25 0 2 -72 3 -160 2
-142 -1 -163 -3 -185 -21z"/>
<path d="M4085 1497 c-2 -7 -10 -52 -19 -102 -8 -49 -18 -103 -21 -120 -18
-96 -20 -92 32 -91 51 1 46 -5 67 87 l6 26 125 0 c125 0 137 2 141 26 1 7 5
26 8 42 3 17 9 53 12 80 4 28 8 53 10 57 2 3 -77 6 -176 7 -132 0 -182 -3
-185 -12z m251 -70 c-11 -84 -10 -83 -89 -82 -73 0 -102 9 -91 26 6 10 16 55
17 77 0 8 24 12 84 12 l83 0 -4 -33z"/>
<path d="M4846 1493 c-4 -9 -9 -32 -12 -52 -3 -20 -7 -47 -10 -61 -2 -14 -7
-41 -10 -60 -3 -19 -7 -37 -7 -40 -1 -3 12 -26 28 -52 l30 -48 146 0 147 0 7
38 c4 20 9 48 11 62 3 14 7 36 10 50 2 14 7 41 10 60 3 19 9 52 14 73 4 20 5
39 1 41 -3 2 -86 4 -183 5 -153 0 -177 -2 -182 -16z m264 -40 c0 -3 -9 -56
-21 -117 l-20 -111 -42 2 c-23 1 -51 2 -62 2 -32 1 -59 55 -51 105 8 58 16 99
21 114 5 13 175 18 175 5z"/>
<path d="M5621 1500 c-4 -3 -18 -66 -30 -140 -13 -74 -25 -145 -28 -157 -5
-22 -2 -23 45 -23 l50 0 7 43 c4 23 10 53 12 67 3 14 10 57 17 95 l12 70 90 1
90 2 -5 -37 -6 -36 -83 -3 -82 -3 67 -99 68 -99 59 -1 58 0 -17 27 c-10 14
-33 46 -52 71 -18 24 -32 46 -30 49 3 2 25 4 50 5 51 1 51 1 63 83 13 99 32
89 -169 90 -98 0 -181 -2 -186 -5z"/>
<path d="M6400 1490 c15 -28 28 -33 87 -32 29 0 53 -3 53 -6 0 -9 -19 -121
-25 -152 -3 -14 -8 -41 -11 -60 -3 -19 -7 -41 -9 -48 -4 -10 8 -12 48 -10 44
3 52 6 54 23 1 11 6 43 11 70 6 28 13 70 17 95 4 25 9 52 10 60 2 8 4 18 4 21
1 4 29 7 63 8 53 0 66 4 85 26 l23 25 -210 -1 c-201 -1 -209 -2 -200 -19z"/>
</g>
</svg>
